<svg xmlns="http://www.w3.org/2000/svg" version="1.1" xmlns:xlink="http://www.w3.org/1999/xlink" xmlns:svgjs="http://svgjs.dev/svgjs" width="2000" height="1878" viewBox="0 0 2000 1878"><g transform="matrix(1,0,0,1,-1.1334456486420095,0.7603238866396396)"><svg viewBox="0 0 263 247" data-background-color="#ffffff" preserveAspectRatio="xMidYMid meet" height="1878" width="2000" xmlns="http://www.w3.org/2000/svg" xmlns:xlink="http://www.w3.org/1999/xlink"><g id="tight-bounds" transform="matrix(1,0,0,1,0.14904820179486933,-0.09999999999999432)"><svg viewBox="0 0 262.70190369540876 247.2" height="247.2" width="262.70190369540876"><g><svg viewBox="0 0 262.70190369540876 247.2" height="247.2" width="262.70190369540876"><g><svg viewBox="0 0 262.70190369540876 247.2" height="247.2" width="262.70190369540876"><g id="textblocktransform"><svg viewBox="0 0 262.70190369540876 247.2" height="247.2" width="262.70190369540876" id="textblock"><g><svg viewBox="0 0 262.70190369540876 247.2" height="247.2" width="262.70190369540876"><g transform="matrix(1,0,0,1,0,0)"><svg width="262.70190369540876" viewBox="0.45000001788139343 -33.650001525878906 47.45000076293945 44.650001525878906" height="247.2" data-palette-color="#111111"><path d="M24.35-26.35Q24.1-27.15 22.43-27.78 20.75-28.4 18.05-28.4L18.05-28.4Q15.1-28.4 13.45-26.75 11.8-25.1 11.8-22.6L11.8-22.6Q11.8-21.05 12.93-20.23 14.05-19.4 16.4-18.4L16.4-18.4 18.2-17.65 19.7-16.95Q22.4-15.75 23.98-14.78 25.55-13.8 26.65-12.1 27.75-10.4 27.75-7.75L27.75-7.75Q27.75-4.9 25.88-2.83 24-0.75 20.65 0.33 17.3 1.4 12.85 1.4L12.85 1.4Q9.55 1.4 6.68 0.38 3.8-0.65 2.13-2.2 0.45-3.75 0.45-5.25L0.45-5.25Q0.45-6.7 1.7-7.63 2.95-8.55 5.25-8.9L5.25-8.9Q5.5-7.45 6.95-6.3 8.4-5.15 10.33-4.48 12.25-3.8 13.7-3.8L13.7-3.8Q16.35-3.8 18.43-4.85 20.5-5.9 20.5-7.75L20.5-7.75Q20.5-9.3 19.03-10.33 17.55-11.35 14.6-12.55L14.6-12.55 11.95-13.75Q8.7-15.35 6.8-17.35 4.9-19.35 4.9-22.65L4.9-22.65Q4.9-26.3 6.95-28.58 9-30.85 11.93-31.85 14.85-32.85 17.65-32.85L17.65-32.85Q22.1-32.85 24.98-31.7 27.85-30.55 29.15-28.8 30.45-27.05 30.45-25.2L30.45-25.2Q30.45-24.15 29.93-22.65 29.4-21.15 28.38-20.05 27.35-18.95 25.9-18.95L25.9-18.95Q23.4-18.95 23.4-21.55L23.4-21.55Q23.5-22.35 23.85-24.18 24.2-26 24.35-26.35L24.35-26.35ZM39.6-29.7Q39.6-31.25 40.57-32.45 41.55-33.65 43.3-33.65L43.3-33.65Q45.15-33.65 46.52-32.5 47.9-31.35 47.9-29.9L47.9-29.9Q47.9-28.45 46.5-27.4 45.1-26.35 43.25-26.35L43.25-26.35Q41.45-26.35 40.52-27.28 39.6-28.2 39.6-29.7L39.6-29.7ZM39.5-21.35L38.15-22.85Q38-23 38-23.2L38-23.2Q38-23.7 39.1-24.03 40.2-24.35 42.15-24.35L42.15-24.35Q43.9-24.35 44.67-23.33 45.45-22.3 45.6-20.85L45.6-20.85Q42.3-7.2 40.3 0.45L40.3 0.45Q38.95 5.7 36.35 8.35 33.75 11 29 11L29 11Q26.7 11 25.07 10 23.45 9 22.67 7.48 21.9 5.95 21.9 4.3L21.9 4.3Q21.9 3.05 22.47 2.3 23.05 1.55 24.85 1.55L24.85 1.55Q25.5 1.55 25.77 2.05 26.05 2.55 26.25 3.6L26.25 3.6Q26.55 5.1 27.1 5.9 27.65 6.7 29.2 6.7L29.2 6.7Q30.95 6.7 32.17 5.2 33.4 3.7 34.05 0.95L34.05 0.95 39.5-21.35Z" opacity="1" transform="matrix(1,0,0,1,0,0)" fill="#000000" class="wordmark-text-0" data-fill-palette-color="primary" id="text-0"></path></svg></g></svg></g></svg></g></svg></g></svg></g><defs></defs></svg><rect width="262.70190369540876" height="247.2" fill="none" stroke="none" visibility="hidden"></rect></g></svg></g></svg>